{
	"asset":{
		"generator":"Khronos glTF Blender I/O v5.1.0",
		"version":"2.0"
	},
	"extensionsUsed":[
		"KHR_lights_punctual"
	],
	"extensionsRequired":[
		"KHR_lights_punctual"
	],
	"extensions":{
		"KHR_lights_punctual":{
			"lights":[
				{
					"color":[
						0.5866235494613647,
						1,
						0.7503679990768433
					],
					"intensity":5435.141306588225,
					"type":"point",
					"name":"Point"
				}
			]
		}
	},
	"scene":0,
	"scenes":[
		{
			"extras":{
				"bc":{
					"snap":{
						"hit":false
					},
					"running":0,
					"collection":null,
					"shape":null
				},
				"uuid":"70fc7cd3-e6c7-42fb-8edf-feafeb025a10",
				"assets reported":{}
			},
			"name":"Scene",
			"nodes":[
				0,
				1,
				2,
				3,
				4,
				5,
				6
			]
		}
	],
	"nodes":[
		{
			"camera":0,
			"extras":{
				"hops":{}
			},
			"name":"Camera1",
			"rotation":[
				-0.20880532264709473,
				-0.4023858606815338,
				-0.09480112791061401,
				0.8862836360931396
			],
			"translation":[
				-16.637697219848633,
				12.425699234008789,
				15.797157287597656
			]
		},
		{
			"extras":{
				"hops":{}
			},
			"mesh":0,
			"name":"Plane"
		},
		{
			"extras":{
				"hops":{}
			},
			"mesh":1,
			"name":"Cube"
		},
		{
			"extras":{
				"hops":{}
			},
			"mesh":2,
			"name":"Suzanne",
			"translation":[
				0,
				1.3734322786331177,
				0
			]
		},
		{
			"extensions":{
				"KHR_lights_punctual":{
					"light":0
				}
			},
			"extras":{
				"hops":{}
			},
			"name":"Point",
			"rotation":[
				-0.7071068286895752,
				0,
				0,
				0.7071068286895752
			],
			"translation":[
				3.1316986083984375,
				3.4583382606506348,
				2.575364351272583
			]
		},
		{
			"camera":1,
			"extras":{
				"hops":{}
			},
			"name":"Camera2",
			"rotation":[
				-0.21705873310565948,
				-0.26441776752471924,
				-0.06120971590280533,
				0.9376684427261353
			],
			"translation":[
				-4.881221294403076,
				5.9858574867248535,
				8.391897201538086
			]
		},
		{
			"mesh":3,
			"name":"Sphere",
			"translation":[
				2.9497087001800537,
				1.0612380504608154,
				0
			]
		}
	],
	"cameras":[
		{
			"name":"Camera",
			"perspective":{
				"aspectRatio":1.7777777777777777,
				"yfov":0.2683774545627357,
				"zfar":100,
				"znear":0.10000000149011612
			},
			"type":"perspective"
		},
		{
			"name":"Camera2",
			"perspective":{
				"aspectRatio":1.7777777777777777,
				"yfov":0.2683774545627357,
				"zfar":100,
				"znear":0.10000000149011612
			},
			"type":"perspective"
		}
	],
	"materials":[
		{
			"doubleSided":true,
			"name":"Material.004",
			"pbrMetallicRoughness":{
				"baseColorFactor":[
					0.7118030786514282,
					0.8000315427780151,
					0.23064365983009338,
					1
				],
				"metallicFactor":0,
				"roughnessFactor":0.5
			}
		},
		{
			"doubleSided":true,
			"name":"Material.003",
			"pbrMetallicRoughness":{
				"baseColorFactor":[
					0.24219894409179688,
					0.8001810312271118,
					0.6763709187507629,
					1
				],
				"metallicFactor":0,
				"roughnessFactor":0.5
			}
		},
		{
			"doubleSided":true,
			"name":"Material.002",
			"pbrMetallicRoughness":{
				"baseColorFactor":[
					0.800000011920929,
					0.800000011920929,
					0.800000011920929,
					1
				],
				"metallicFactor":0.800000011920929,
				"roughnessFactor":0.20000000298023224
			}
		}
	],
	"meshes":[
		{
			"extras":{
				"hops":{}
			},
			"name":"Plane",
			"primitives":[
				{
					"attributes":{
						"POSITION":0,
						"NORMAL":1,
						"TEXCOORD_0":2
					},
					"indices":3,
					"material":0
				}
			]
		},
		{
			"extras":{
				"hops":{}
			},
			"name":"Cube.002",
			"primitives":[
				{
					"attributes":{
						"POSITION":4,
						"NORMAL":5,
						"TEXCOORD_0":6
					},
					"indices":7,
					"material":1
				}
			]
		},
		{
			"name":"Mesh",
			"primitives":[
				{
					"attributes":{
						"POSITION":8,
						"NORMAL":9,
						"TEXCOORD_0":10
					},
					"indices":11,
					"material":2
				}
			]
		},
		{
			"name":"Sphere",
			"primitives":[
				{
					"attributes":{
						"POSITION":12,
						"NORMAL":13,
						"TEXCOORD_0":14
					},
					"indices":15
				}
			]
		}
	],
	"accessors":[
		{
			"bufferView":0,
			"componentType":5126,
			"count":4,
			"max":[
				5,
				0,
				5
			],
			"min":[
				-5,
				0,
				-5
			],
			"type":"VEC3"
		},
		{
			"bufferView":1,
			"componentType":5126,
			"count":4,
			"type":"VEC3"
		},
		{
			"bufferView":2,
			"componentType":5126,
			"count":4,
			"type":"VEC2"
		},
		{
			"bufferView":3,
			"componentType":5123,
			"count":6,
			"type":"SCALAR"
		},
		{
			"bufferView":4,
			"componentType":5126,
			"count":24,
			"max":[
				3.353931427001953,
				0.060522496700286865,
				3.353931427001953
			],
			"min":[
				-3.353931427001953,
				-0.060522496700286865,
				-3.353931427001953
			],
			"type":"VEC3"
		},
		{
			"bufferView":5,
			"componentType":5126,
			"count":24,
			"type":"VEC3"
		},
		{
			"bufferView":6,
			"componentType":5126,
			"count":24,
			"type":"VEC2"
		},
		{
			"bufferView":7,
			"componentType":5123,
			"count":36,
			"type":"SCALAR"
		},
		{
			"bufferView":8,
			"componentType":5126,
			"count":9853,
			"max":[
				1.328185796737671,
				0.9392362236976624,
				0.8224414587020874
			],
			"min":[
				-1.328185796737671,
				-0.971822202205658,
				-0.7782661318778992
			],
			"type":"VEC3"
		},
		{
			"bufferView":9,
			"componentType":5126,
			"count":9853,
			"type":"VEC3"
		},
		{
			"bufferView":10,
			"componentType":5126,
			"count":9853,
			"type":"VEC2"
		},
		{
			"bufferView":11,
			"componentType":5123,
			"count":47232,
			"type":"SCALAR"
		},
		{
			"bufferView":12,
			"componentType":5126,
			"count":1984,
			"max":[
				0.9999997019767761,
				1,
				0.9999993443489075
			],
			"min":[
				-0.9999990463256836,
				-1,
				-1
			],
			"type":"VEC3"
		},
		{
			"bufferView":13,
			"componentType":5126,
			"count":1984,
			"type":"VEC3"
		},
		{
			"bufferView":14,
			"componentType":5126,
			"count":1984,
			"type":"VEC2"
		},
		{
			"bufferView":15,
			"componentType":5123,
			"count":2880,
			"type":"SCALAR"
		}
	],
	"bufferViews":[
		{
			"buffer":0,
			"byteLength":48,
			"byteOffset":0,
			"target":34962
		},
		{
			"buffer":0,
			"byteLength":48,
			"byteOffset":48,
			"target":34962
		},
		{
			"buffer":0,
			"byteLength":32,
			"byteOffset":96,
			"target":34962
		},
		{
			"buffer":0,
			"byteLength":12,
			"byteOffset":128,
			"target":34963
		},
		{
			"buffer":0,
			"byteLength":288,
			"byteOffset":140,
			"target":34962
		},
		{
			"buffer":0,
			"byteLength":288,
			"byteOffset":428,
			"target":34962
		},
		{
			"buffer":0,
			"byteLength":192,
			"byteOffset":716,
			"target":34962
		},
		{
			"buffer":0,
			"byteLength":72,
			"byteOffset":908,
			"target":34963
		},
		{
			"buffer":0,
			"byteLength":118236,
			"byteOffset":980,
			"target":34962
		},
		{
			"buffer":0,
			"byteLength":118236,
			"byteOffset":119216,
			"target":34962
		},
		{
			"buffer":0,
			"byteLength":78824,
			"byteOffset":237452,
			"target":34962
		},
		{
			"buffer":0,
			"byteLength":94464,
			"byteOffset":316276,
			"target":34963
		},
		{
			"buffer":0,
			"byteLength":23808,
			"byteOffset":410740,
			"target":34962
		},
		{
			"buffer":0,
			"byteLength":23808,
			"byteOffset":434548,
			"target":34962
		},
		{
			"buffer":0,
			"byteLength":15872,
			"byteOffset":458356,
			"target":34962
		},
		{
			"buffer":0,
			"byteLength":5760,
			"byteOffset":474228,
			"target":34963
		}
	],
	"buffers":[
		{
			"byteLength":479988,
			"uri":"dev_scenes.bin"
		}
	]
}
